<svg xmlns="http://www.w3.org/2000/svg" viewBox="-0.5 -0.5 100 100" fill="currentColor" id="Text-T-Bold--Streamline-Phosphor.svg" height="100" width="100"><desc>Text T Bold Streamline Icon: https://streamlinehq.com</desc><path d="M98.01 7.92v18.480012890625c0 5.3347078125000005 -5.774987109375 8.66891953125 -10.395 6.001526953125 -2.1441621093750003 -1.2379253906249998 -3.4650000000000003 -3.525676171875 -3.4650000000000003 -6.001526953125V14.85h-27.720000000000002v69.3h11.550012890625c5.3347078125000005 0 8.66891953125 5.774987109375 6.001526953125 10.395 -1.2379253906249998 2.1441621093750003 -3.525676171875 3.4650000000000003 -6.001526953125 3.4650000000000003H31.019987109375002c-5.3347078125000005 0 -8.66891953125 -5.774987109375 -6.001526953125 -10.395 1.2379253906249998 -2.1441621093750003 3.525676171875 -3.4650000000000003 6.001526953125 -3.4650000000000003H42.57V14.85H14.85v11.550012890625c0 5.3347078125000005 -5.774987109375 8.66891953125 -10.395 6.001526953125 -2.1441621093750003 -1.2379253906249998 -3.4650000000000003 -3.525676171875 -3.4650000000000003 -6.001526953125V7.92c0 -3.8273167968750004 3.102683203125 -6.930000000000001 6.930000000000001 -6.930000000000001h83.16c3.8273167968750004 0 6.930000000000001 3.102683203125 6.930000000000001 6.930000000000001Z" stroke-width="1"></path></svg>