<svg viewBox="0 0 100 100" fill="none" xmlns="http://www.w3.org/2000/svg" id="Youtube--Streamline-Unicons-Thinline.svg" height="100" width="100"><desc>Youtube Streamline Icon: https://streamlinehq.com</desc><path d="M63.68083333333334 43.99958333333334L45.7075 33.649166666666666C44.656666666666666 33.04333333333334 43.465 32.72375 42.251666666666665 32.722500000000004C38.417500000000004 32.717083333333335 35.305416666666666 35.82083333333333 35.3 39.654583333333335V60.34541666666667C35.285000000000004 62.822500000000005 36.60791666666667 65.115 38.75958333333334 66.34166666666667C39.81666666666666 66.95916666666668 41.018750000000004 67.28625000000001 42.24333333333334 67.28875000000001C43.46125 67.28333333333333 44.657500000000006 66.96000000000001 45.712500000000006 66.35083333333334L63.68083333333334 56.000416666666666C64.73875000000001 55.39125000000001 65.6175 54.51291666666667 66.22625000000001 53.455000000000005C68.13458333333334 50.14041666666667 66.99458333333334 45.9075 63.68083333333334 43.99958333333334ZM61.23125 51.75125L43.26791666666667 62.101666666666674C42.633750000000006 62.47375000000001 41.848333333333336 62.47375000000001 41.215 62.101666666666674C40.58291666666667 61.74416666666667 40.19416666666667 61.07166666666667 40.20041666666667 60.34541666666667V39.654583333333335C40.19416666666667 38.928333333333335 40.58291666666667 38.255833333333335 41.215 37.89833333333333C41.53125 37.717916666666675 41.88875 37.62041666666667 42.25291666666667 37.61625000000001C42.60875000000001 37.61708333333334 42.95791666666667 37.71458333333334 43.2625 37.89833333333333L61.23125 48.24875000000001C61.546666666666674 48.42791666666667 61.80833333333334 48.689166666666665 61.987500000000004 49.005C62.53708333333334 49.97208333333334 62.198750000000004 51.20166666666667 61.23125 51.75125ZM84.3 10.8H15.700000000000001C7.585000000000001 10.809166666666666 1.0091666666666668 17.385 1 25.500000000000004V74.5C1.0091666666666668 82.61500000000001 7.585000000000001 89.19125 15.700000000000001 89.20000000000002H84.3C92.415 89.19125 98.99125000000001 82.61500000000001 99.00000000000001 74.5V25.500000000000004C98.99125000000001 17.385 92.415 10.809166666666666 84.3 10.8ZM94.10000000000001 74.5C94.09333333333333 79.90958333333334 89.70958333333334 84.29333333333334 84.3 84.3H15.700000000000001C10.290416666666667 84.29333333333334 5.9070833333333335 79.90958333333334 5.9 74.5V25.500000000000004C5.9070833333333335 20.090416666666666 10.290416666666667 15.707083333333333 15.700000000000001 15.700000000000001H84.3C89.70958333333334 15.707083333333333 94.09291666666667 20.090416666666666 94.10000000000001 25.500000000000004V74.5Z" fill="#000000" stroke-width="1"></path></svg>